<?xml version="1.0" encoding="UTF-8" standalone="no"?>
<!-- Generator: Adobe Illustrator 19.0.0, SVG Export Plug-In . SVG Version: 6.00 Build 0)  -->

<svg
   xmlns:dc="http://purl.org/dc/elements/1.1/"
   xmlns:cc="http://creativecommons.org/ns#"
   xmlns:rdf="http://www.w3.org/1999/02/22-rdf-syntax-ns#"
   xmlns:svg="http://www.w3.org/2000/svg"
   xmlns="http://www.w3.org/2000/svg"
   xmlns:sodipodi="http://sodipodi.sourceforge.net/DTD/sodipodi-0.dtd"
   xmlns:inkscape="http://www.inkscape.org/namespaces/inkscape"
   version="1.1"
   id="Capa_1"
   x="0px"
   y="0px"
   viewBox="0 0 455.431 455.431"
   style="enable-background:new 0 0 455.431 455.431;"
   xml:space="preserve"
   sodipodi:docname="red_flag.svg"
   inkscape:version="0.92.2 5c3e80d, 2017-08-06"><metadata
     id="metadata43"><rdf:RDF><cc:Work
         rdf:about=""><dc:format>image/svg+xml</dc:format><dc:type
           rdf:resource="http://purl.org/dc/dcmitype/StillImage" /><dc:title></dc:title></cc:Work></rdf:RDF></metadata><defs
     id="defs41" /><sodipodi:namedview
     pagecolor="#ffffff"
     bordercolor="#666666"
     borderopacity="1"
     objecttolerance="10"
     gridtolerance="10"
     guidetolerance="10"
     inkscape:pageopacity="0"
     inkscape:pageshadow="2"
     inkscape:window-width="1680"
     inkscape:window-height="1005"
     id="namedview39"
     showgrid="false"
     inkscape:zoom="2.0307241"
     inkscape:cx="154.37013"
     inkscape:cy="221.03152"
     inkscape:window-x="0"
     inkscape:window-y="1"
     inkscape:window-maximized="1"
     inkscape:current-layer="Capa_1"
     inkscape:snap-center="false"
     inkscape:pagecheckerboard="true" /><path
     style="fill:#5CA4DA;"
     d="M405.493,412.764c-69.689,56.889-287.289,56.889-355.556,0c-69.689-56.889-62.578-300.089,0-364.089  s292.978-64,355.556,0S475.182,355.876,405.493,412.764z"
     id="path2" /><path
     style="fill:#6DAFE0;"
     d="M229.138,313.209c-62.578,49.778-132.267,75.378-197.689,76.8  c-48.356-82.489-38.4-283.022,18.489-341.333c51.2-52.622,211.911-62.578,304.356-29.867  C377.049,112.676,330.116,232.142,229.138,313.209z"
     id="path4" /><g
     id="g8" /><g
     id="g10" /><g
     id="g12" /><g
     id="g14" /><g
     id="g16" /><g
     id="g18" /><g
     id="g20" /><g
     id="g22" /><g
     id="g24" /><g
     id="g26" /><g
     id="g28" /><g
     id="g30" /><g
     id="g32" /><g
     id="g34" /><g
     id="g36" /><path
     id="path4001"
     d="M 76.804563,392.47506 H 136.65141 V 231.55353 h 19.94894 v 19.94895 h 59.84685 v 59.84685 H 396.55142 L 366.29551,241.528 396.55142,171.70668 H 316.19196 V 111.85982 H 156.60035 v 19.94895 h -19.94894 v -13.55126 c 6.20027,-7.03149 9.97447,-16.25528 9.97447,-26.346635 0,-22.001 -17.89691,-39.8979 -39.8979,-39.8979 -22.000981,0 -39.897895,17.8969 -39.897895,39.8979 0,10.091355 3.774197,19.315145 9.974478,26.346635 z M 96.753511,372.52611 V 130.54637 c 3.189754,0.82342 6.530159,1.2624 9.974469,1.2624 3.44431,0 6.78472,-0.43898 9.97447,-1.2624 V 372.52611 Z M 276.29405,251.50248 236.39616,281.4259 v -29.92342 z m 89.87158,-59.84686 -21.61135,49.87238 21.61135,49.87237 H 256.34511 l 59.84685,-44.88513 V 191.65562 Z M 176.54931,131.80877 H 296.243 v 99.74476 H 176.54931 Z m -19.94896,19.94896 v 59.84684 H 136.65141 V 151.75773 Z M 106.72798,71.961915 c 11.0005,0 19.94895,8.94845 19.94895,19.94896 0,11.000485 -8.94845,19.948945 -19.94895,19.948945 -11.000486,0 -19.948947,-8.94846 -19.948947,-19.948945 0,-11.00051 8.948461,-19.94896 19.948947,-19.94896 z m 0,0"
     inkscape:connector-curvature="0"
     style="stroke-width:0.66496497" /><rect
     id="rect4012"
     width="119.69369"
     height="99.744759"
     x="176.54932"
     y="131.80878"
     style="fill:#11a8f0;fill-opacity:0" /><path
     style="fill:#c2292f;stroke:#000000;stroke-width:1px;stroke-linecap:butt;stroke-linejoin:miter;stroke-opacity:1;fill-opacity:1"
     d="m 316.19196,191.65562 v 54.85962 l -59.84685,44.88513 H 366.16563 L 344.55428,241.528 366.16563,191.65562 Z"
     id="path4819"
     inkscape:connector-curvature="0" /><rect
     style="fill:#c2292f;fill-opacity:1"
     id="rect4821"
     width="119.69368"
     height="99.744759"
     x="176.54932"
     y="131.80878" /><path
     style="fill:#c2292f;stroke:#000000;stroke-width:1px;stroke-linecap:butt;stroke-linejoin:miter;stroke-opacity:1;fill-opacity:1"
     d="m 236.39616,251.50248 h 39.89789 l -39.89789,29.92342 z"
     id="path4823"
     inkscape:connector-curvature="0" /></svg>